<svg width="0" height="0" class="hidden">
  <symbol fill="currentColor" xmlns="http://www.w3.org/2000/svg" viewBox="0 0 16 16" id="card-text">
    <path fill-rule="evenodd" d="M14.5 3h-13a.5.5 0 0 0-.5.5v9a.5.5 0 0 0 .5.5h13a.5.5 0 0 0 .5-.5v-9a.5.5 0 0 0-.5-.5zm-13-1A1.5 1.5 0 0 0 0 3.5v9A1.5 1.5 0 0 0 1.5 14h13a1.5 1.5 0 0 0 1.5-1.5v-9A1.5 1.5 0 0 0 14.5 2h-13z"/>
    <path fill-rule="evenodd" d="M3 5.5a.5.5 0 0 1 .5-.5h9a.5.5 0 0 1 0 1h-9a.5.5 0 0 1-.5-.5zM3 8a.5.5 0 0 1 .5-.5h9a.5.5 0 0 1 0 1h-9A.5.5 0 0 1 3 8zm0 2.5a.5.5 0 0 1 .5-.5h6a.5.5 0 0 1 0 1h-6a.5.5 0 0 1-.5-.5z"/>
  </symbol>
  <symbol fill="currentColor" xmlns="http://www.w3.org/2000/svg" viewBox="0 0 16 16" id="chat">
    <path fill-rule="evenodd" d="M2.678 11.894a1 1 0 0 1 .287.801 10.97 10.97 0 0 1-.398 2c1.395-.323 2.247-.697 2.634-.893a1 1 0 0 1 .71-.074A8.06 8.06 0 0 0 8 14c3.996 0 7-2.807 7-6 0-3.192-3.004-6-7-6S1 4.808 1 8c0 1.468.617 2.83 1.678 3.894zm-.493 3.905a21.682 21.682 0 0 1-.713.129c-.2.032-.352-.176-.273-.362a9.68 9.68 0 0 0 .244-.637l.003-.01c.248-.72.45-1.548.524-2.319C.743 11.37 0 9.76 0 8c0-3.866 3.582-7 8-7s8 3.134 8 7-3.582 7-8 7a9.06 9.06 0 0 1-2.347-.306c-.52.263-1.639.742-3.468 1.105z"/>  </symbol>
  <symbol fill="currentColor" xmlns="http://www.w3.org/2000/svg" viewBox="0 0 16 16" id="clock-fill">
    <path fill-rule="evenodd" d="M16 8A8 8 0 110 8a8 8 0 0116 0zM8 3.5a.5.5 0 00-1 0V9a.5.5 0 00.252.434l3.5 2a.5.5 0 00.496-.868L8 8.71V3.5z"></path>
  </symbol>
  <symbol fill="currentColor" xmlns="http://www.w3.org/2000/svg" viewBox="0 0 16 16" id="clock">
    <path fill-rule="evenodd" d="M8 15A7 7 0 108 1a7 7 0 000 14zm8-7A8 8 0 110 8a8 8 0 0116 0z"></path>
    <path fill-rule="evenodd" d="M7.5 3a.5.5 0 01.5.5v5.21l3.248 1.856a.5.5 0 01-.496.868l-3.5-2A.5.5 0 017 9V3.5a.5.5 0 01.5-.5z"></path>
  </symbol>
  <symbol fill="currentColor" xmlns="http://www.w3.org/2000/svg" viewBox="0 0 16 16" id="credit-card">
    <path fill-rule="evenodd" d="M0 4a2 2 0 012-2h12a2 2 0 012 2v8a2 2 0 01-2 2H2a2 2 0 01-2-2V4zm2-1a1 1 0 00-1 1v1h14V4a1 1 0 00-1-1H2zm13 4H1v5a1 1 0 001 1h12a1 1 0 001-1V7z"></path>
    <path d="M2 10a1 1 0 011-1h1a1 1 0 011 1v1a1 1 0 01-1 1H3a1 1 0 01-1-1v-1z"></path>
  </symbol>
  <symbol fill="currentColor" xmlns="http://www.w3.org/2000/svg" viewBox="0 0 16 16" id="envelope">
    <path fill-rule="evenodd" d="M0 4a2 2 0 0 1 2-2h12a2 2 0 0 1 2 2v8a2 2 0 0 1-2 2H2a2 2 0 0 1-2-2V4zm2-1a1 1 0 0 0-1 1v.217l7 4.2 7-4.2V4a1 1 0 0 0-1-1H2zm13 2.383l-4.758 2.855L15 11.114v-5.73zm-.034 6.878L9.271 8.82 8 9.583 6.728 8.82l-5.694 3.44A1 1 0 0 0 2 13h12a1 1 0 0 0 .966-.739zM1 11.114l4.758-2.876L1 5.383v5.73z"/>
  </symbol>
  <symbol fill="currentColor" xmlns="http://www.w3.org/2000/svg" viewBox="0 0 16 16" id="heart">
    <path fill-rule="evenodd" d="M8 2.748l-.717-.737C5.6.281 2.514.878 1.4 3.053c-.523 1.023-.641 2.5.314 4.385.92 1.815 2.834 3.989 6.286 6.357 3.452-2.368 5.365-4.542 6.286-6.357.955-1.886.838-3.362.314-4.385C13.486.878 10.4.28 8.717 2.01L8 2.748zM8 15C-7.333 4.868 3.279-3.04 7.824 1.143c.06.055.119.112.176.171a3.12 3.12 0 01.176-.17C12.72-3.042 23.333 4.867 8 15z"></path>
  </symbol>
  <symbol fill="currentColor" xmlns="http://www.w3.org/2000/svg" viewBox="0 0 16 16" id="pencil-square">
    <path d="M15.502 1.94a.5.5 0 010 .706L14.459 3.69l-2-2L13.502.646a.5.5 0 01.707 0l1.293 1.293zm-1.75 2.456l-2-2L4.939 9.21a.5.5 0 00-.121.196l-.805 2.414a.25.25 0 00.316.316l2.414-.805a.5.5 0 00.196-.12l6.813-6.814z"></path>
    <path fill-rule="evenodd" d="M1 13.5A1.5 1.5 0 002.5 15h11a1.5 1.5 0 001.5-1.5v-6a.5.5 0 00-1 0v6a.5.5 0 01-.5.5h-11a.5.5 0 01-.5-.5v-11a.5.5 0 01.5-.5H9a.5.5 0 000-1H2.5A1.5 1.5 0 001 2.5v11z"></path>
  </symbol>
  <symbol fill="currentColor" xmlns="http://www.w3.org/2000/svg" viewBox="0 0 16 16" id="question">
    <path d="M5.25 6.033h1.32c0-.781.458-1.384 1.36-1.384.685 0 1.313.343 1.313 1.168 0 .635-.374.927-.965 1.371-.673.489-1.206 1.06-1.168 1.987l.007.463h1.307v-.355c0-.718.273-.927 1.01-1.486.609-.463 1.244-.977 1.244-2.056 0-1.511-1.276-2.241-2.673-2.241-1.326 0-2.786.647-2.754 2.533zm1.562 5.516c0 .533.425.927 1.01.927.609 0 1.028-.394 1.028-.927 0-.552-.42-.94-1.029-.94-.584 0-1.009.388-1.009.94z"></path>
  </symbol>
  <symbol fill="currentColor" xmlns="http://www.w3.org/2000/svg" viewBox="0 0 16 16" id="search">
    <path fill-rule="evenodd" d="M10.442 10.442a1 1 0 011.415 0l3.85 3.85a1 1 0 01-1.414 1.415l-3.85-3.85a1 1 0 010-1.415z"></path>
    <path fill-rule="evenodd" d="M6.5 12a5.5 5.5 0 100-11 5.5 5.5 0 000 11zM13 6.5a6.5 6.5 0 11-13 0 6.5 6.5 0 0113 0z"></path>
  </symbol>
  <symbol fill="currentColor" xmlns="http://www.w3.org/2000/svg" viewBox="0 0 16 16" id="signpost">
    <path d="M7 1.414V4h2V1.414a1 1 0 0 0-2 0z"/>
    <path fill-rule="evenodd" d="M12.532 5H2v4h10.532l1.666-2-1.666-2zM2 4a1 1 0 0 0-1 1v4a1 1 0 0 0 1 1h10.532a1 1 0 0 0 .768-.36l1.933-2.32a.5.5 0 0 0 0-.64L13.3 4.36a1 1 0 0 0-.768-.36H2z"/>
    <path d="M7 10h2v6H7v-6z"/>
  </symbol>
  <symbol fill="currentColor" xmlns="http://www.w3.org/2000/svg" viewBox="0 0 16 16" id="star">
    <path fill-rule="evenodd" d="M2.866 14.85c-.078.444.36.791.746.593l4.39-2.256 4.389 2.256c.386.198.824-.149.746-.592l-.83-4.73 3.523-3.356c.329-.314.158-.888-.283-.95l-4.898-.696L8.465.792a.513.513 0 00-.927 0L5.354 5.12l-4.898.696c-.441.062-.612.636-.283.95l3.523 3.356-.83 4.73zm4.905-2.767l-3.686 1.894.694-3.957a.565.565 0 00-.163-.505L1.71 6.745l4.052-.576a.525.525 0 00.393-.288l1.847-3.658 1.846 3.658a.525.525 0 00.393.288l4.052.575-2.906 2.77a.564.564 0 00-.163.506l.694 3.957-3.686-1.894a.503.503 0 00-.461 0z"></path>
  </symbol>
</svg>
