<?xml version="1.0" encoding="UTF-8" standalone="no"?>
<svg
   xmlns:dc="http://purl.org/dc/elements/1.1/"
   xmlns:cc="http://creativecommons.org/ns#"
   xmlns:rdf="http://www.w3.org/1999/02/22-rdf-syntax-ns#"
   xmlns:svg="http://www.w3.org/2000/svg"
   xmlns="http://www.w3.org/2000/svg"
   id="svg8"
   version="1.1"
   viewBox="0 0 26.458333 26.458333"
   height="100"
   width="100">
  <defs
     id="defs2" />
  <metadata
     id="metadata5">
    <rdf:RDF>
      <cc:Work
         rdf:about="">
        <dc:format>image/svg+xml</dc:format>
        <dc:type
           rdf:resource="http://purl.org/dc/dcmitype/StillImage" />
        <dc:title></dc:title>
      </cc:Work>
    </rdf:RDF>
  </metadata>
  <g
     transform="translate(0,-270.54167)"
     id="layer1">
    <path
       d="m 23.846127,291.81087 c -0.517489,0.68335 -1.231856,0.48779 -1.849875,1.08178 -0.618018,0.59398 -0.450932,1.31554 -1.154261,1.80554 -0.703329,0.48999 -1.322302,0.0832 -2.093623,0.45719 -0.771322,0.37393 -0.835388,1.11181 -1.65571,1.36048 -0.820322,0.24867 -1.28331,-0.32944 -2.132433,-0.21216 -0.849123,0.11729 -1.138069,0.79925 -1.995085,0.78226 -0.857016,-0.017 -1.1187,-0.70988 -1.962506,-0.86073 -0.843806,-0.15085 -1.329348,0.40844 -2.1391672,0.12745 -0.8098191,-0.281 -0.8445829,-1.02083 -1.6004746,-1.42505 -0.7558917,-0.40422 -1.3905019,-0.0223 -2.0738536,-0.53983 -0.6833516,-0.51749 -0.4877925,-1.23185 -1.0817777,-1.84987 -0.5939853,-0.61802 -1.3155435,-0.45093 -1.8055365,-1.15426 -0.4899929,-0.70333 -0.083254,-1.3223 -0.4571889,-2.09363 -0.3739355,-0.77132 -1.11181053,-0.83538 -1.36048088,-1.65571 -0.24867034,-0.82032 0.32943488,-1.28331 0.2121527,-2.13243 -0.11728218,-0.84912 -0.79924574,-1.13807 -0.78225188,-1.99508 0.01699386,-0.85702 0.70987591,-1.1187 0.86072736,-1.96251 0.15085146,-0.84381 -0.40844524,-1.32935 -0.12745065,-2.13917 0.28099457,-0.80982 1.02082935,-0.84458 1.42504805,-1.60047 0.4042187,-0.75589 0.022337,-1.3905 0.5398263,-2.07385 0.5174896,-0.68336 1.2318569,-0.4878 1.8498751,-1.08178 0.6180182,-0.59399 0.4509322,-1.31555 1.1542613,-1.80554 0.7033292,-0.48999 1.3223017,-0.0833 2.0936235,-0.45719 0.7713218,-0.37393 0.8353873,-1.11181 1.6557092,-1.36048 0.8203224,-0.24867 1.2833104,0.32944 2.1324334,0.21215 0.849123,-0.11728 1.138069,-0.79924 1.995085,-0.78225 0.857016,0.017 1.1187,0.70988 1.962506,0.86073 0.843806,0.15085 1.329348,-0.40845 2.139167,-0.12745 0.809819,0.28099 0.844583,1.02083 1.600475,1.42505 0.755891,0.40422 1.390502,0.0223 2.073853,0.53982 0.683352,0.51749 0.487793,1.23186 1.081778,1.84988 0.593985,0.61802 1.315544,0.45093 1.805537,1.15426 0.489993,0.70333 0.08325,1.3223 0.457189,2.09362 0.373935,0.77132 1.11181,0.83539 1.36048,1.65571 0.248671,0.82032 -0.329435,1.28331 -0.212152,2.13244 0.117282,0.84912 0.799245,1.13806 0.782252,1.99508 -0.01699,0.85702 -0.709876,1.1187 -0.860728,1.96251 -0.150851,0.8438 0.408445,1.32934 0.127451,2.13916 -0.280995,0.80982 -1.02083,0.84459 -1.425048,1.60048 -0.404219,0.75589 -0.02234,1.3905 -0.539827,2.07385 z"
       id="path815"
       style="opacity:1;fill:#94006c;fill-opacity:0.98550726;fill-rule:nonzero;stroke:none;stroke-width:0.40816519;stroke-linecap:butt;stroke-linejoin:miter;stroke-miterlimit:4;stroke-dasharray:none;stroke-opacity:1" />
    <text
       transform="scale(0.99239537,1.0076629)"
       id="text821"
       y="279.46234"
       x="13.277396"
       style="font-style:normal;font-weight:normal;font-size:3.00939083px;line-height:1.25;font-family:sans-serif;letter-spacing:0px;word-spacing:0px;fill:#ffffff;fill-opacity:1;stroke:none;stroke-width:0.22570431"
       xml:space="preserve"><tspan
         id="tspan829"
         style="font-style:normal;font-variant:normal;font-weight:bold;font-stretch:normal;font-size:5.41690397px;line-height:1.10000002;font-family:Raleway;-inkscape-font-specification:'Raleway, Bold';font-variant-ligatures:normal;font-variant-caps:normal;font-variant-numeric:normal;font-feature-settings:normal;text-align:center;writing-mode:lr-tb;text-anchor:middle;fill:#ffffff;fill-opacity:1;stroke-width:0.22570431"
         y="279.46234"
         x="13.277396"><tspan
   id="tspan845"
   style="font-style:normal;font-variant:normal;font-weight:bold;font-stretch:normal;font-size:6.62066031px;font-family:Raleway;-inkscape-font-specification:'Raleway, Bold';font-variant-ligatures:normal;font-variant-caps:normal;font-variant-numeric:normal;font-feature-settings:normal;text-align:center;writing-mode:lr-tb;text-anchor:middle;stroke-width:0.22570431">100</tspan>%</tspan><tspan
         id="tspan823"
         style="font-style:normal;font-variant:normal;font-weight:500;font-stretch:normal;font-size:4.21314764px;line-height:1.10000002;font-family:Raleway;-inkscape-font-specification:'Raleway, Medium';font-variant-ligatures:normal;font-variant-caps:normal;font-variant-numeric:normal;font-feature-settings:normal;text-align:center;writing-mode:lr-tb;text-anchor:middle;fill:#ffffff;fill-opacity:1;stroke-width:0.22570431"
         y="283.7756"
         x="13.277396" /></text>
    <text
       transform="scale(1.0243836,0.97619681)"
       id="text841"
       y="293.85147"
       x="12.91326"
       style="font-style:normal;font-variant:normal;font-weight:normal;font-stretch:normal;font-size:3.91642404px;line-height:1;font-family:Raleway;-inkscape-font-specification:'Raleway, Normal';font-variant-ligatures:normal;font-variant-caps:normal;font-variant-numeric:normal;font-feature-settings:normal;text-align:center;letter-spacing:0px;word-spacing:0px;writing-mode:lr-tb;text-anchor:middle;fill:#ffffff;fill-opacity:1;stroke:none;stroke-width:0.20980841"
       xml:space="preserve"><tspan
         id="tspan843"
         style="font-style:normal;font-variant:normal;font-weight:normal;font-stretch:normal;font-size:3.91642404px;line-height:1;font-family:Raleway;-inkscape-font-specification:'Raleway, Normal';font-variant-ligatures:normal;font-variant-caps:normal;font-variant-numeric:normal;font-feature-settings:normal;text-align:center;writing-mode:lr-tb;text-anchor:middle;fill:#ffffff;fill-opacity:1;stroke-width:0.20980841"
         y="293.85147"
         x="12.91326">KOSTEN</tspan><tspan
         id="tspan849"
         style="font-style:normal;font-variant:normal;font-weight:normal;font-stretch:normal;font-size:3.91642404px;line-height:1;font-family:Raleway;-inkscape-font-specification:'Raleway, Normal';font-variant-ligatures:normal;font-variant-caps:normal;font-variant-numeric:normal;font-feature-settings:normal;text-align:center;writing-mode:lr-tb;text-anchor:middle;fill:#ffffff;fill-opacity:1;stroke-width:0.20980841"
         y="297.76788"
         x="12.91326">LOS</tspan></text>
  </g>
</svg>
